# File produced by Open Asset Import Library (http://www.assimp.sf.net)
# (assimp v5.0.1588609223)

mtllib result.mtl

# 8 vertex positions
v  25 -12.499999 4.7683716e-05
v  25 -12.499999 59.99995
v  -25 -12.500001 59.99995
v  -25 -12.500001 4.7683716e-05
v  -25 12.499999 59.99995
v  -25 12.499999 4.7683716e-05
v  25 12.500001 59.99995
v  25 12.500001 4.7683716e-05

# 14 UV coordinates
vt 0.76608574 0.44697851 0
vt 0.76608574 0.97889739 0
vt 0.58735883 0.97889739 0
vt 0.58735883 0.44697851 0
vt 0.46086061 0.3342483 0
vt 0.020104509 0.3342483 0
vt 0.020104498 0.022017037 0
vt 0.46086061 0.022017067 0
vt 0.58425844 0.97889739 0
vt 0.58425844 0.44697851 0
vt 0.55976176 0.3750554 0
vt 0.55976176 0.98626614 0
vt 0.31793937 0.98626614 0
vt 0.31793937 0.3750554 0

# 8 vertex normals
vn 57.735031 -57.735023 -57.735027
vn 57.735031 -57.735023 57.735027
vn -57.735023 -57.735031 57.735027
vn -57.735023 -57.735031 -57.735027
vn -57.735031 57.735023 57.735027
vn -57.735031 57.735023 -57.735027
vn 57.735023 57.735031 57.735027
vn 57.735023 57.735031 -57.735027

# Mesh 'Cube.001' with 6 faces
g Cube.001
usemtl ComputerMat
f  1/1/1 2/2/2 3/3/3 4/4/4
f  4/5/4 3/6/3 5/7/5 6/8/6
f  6/1/6 5/2/5 7/9/7 8/10/8
f  8/11/8 7/12/7 2/13/2 1/14/1
f  4/1/4 6/2/6 8/9/8 1/10/1
f  5/1/5 3/2/3 2/9/2 7/10/7

