# File produced by Open Asset Import Library (http://www.assimp.sf.net)
# (assimp v5.0.1588609223)

# 52 vertex positions
v  -1.1024818 -18.843838 11.733442
v  -1.1024818 -18.843838 45.994968
v  -18.938988 -18.843838 44.064117
v  -18.938988 -18.843838 14.28898
v  -18.938988 18.843838 44.064117
v  -18.938988 18.843838 14.28898
v  13.798655 25.300001 6.9999986
v  13.798655 25.300001 52.999996
v  22.999998 25.300003 52.999996
v  22.999998 25.300003 6.9999986
v  23 21.462698 46.988251
v  23 -21.462694 46.988251
v  22.345362 -21.639317 46.988251
v  22.345362 21.286076 46.988251
v  15.260657 -12.645478 6.9999986
v  15.260655 12.64548 6.9999986
v  15.260655 12.64548 2.638546
v  15.260657 -12.645478 2.638546
v  13.798656 -25.300001 52.999996
v  23.000002 -25.299999 52.999996
v  -1.1024835 18.843838 45.994968
v  -1.1024835 18.843838 11.733442
v  13.798656 -25.300001 6.9999986
v  23.000002 -25.299999 6.9999986
v  21.538 -12.645478 6.9999986
v  21.538 12.64548 6.9999986
v  21.538 12.64548 2.638546
v  21.538 -12.645478 2.638546
v  23 -21.462694 13.011747
v  23 21.462698 13.011747
v  22.345362 21.286076 13.011747
v  22.345362 -21.639317 13.011747
v  12.411907 -16.554314 -0.29878092
v  11.32172 -15.355103 1.8383285
v  -16.596655 -15.355105 1.8383285
v  -17.686842 -16.554314 -0.29878092
v  -16.596655 15.355103 1.8383285
v  -17.686842 16.554314 -0.29878092
v  11.321718 15.355105 1.8383285
v  12.411905 16.554314 -0.29878092
v  3.6475055 6.1800728 2.9769297
v  -7.5888748 6.1800723 2.9894927
v  -9.6569843 8.4426203 8.0661144
v  5.6797166 8.4426203 7.9079614
v  3.647506 -6.1800728 2.9769297
v  -7.5888739 -6.1800733 2.9894927
v  5.6797175 -8.4426203 7.9079614
v  16.466984 17.193829 18.369684
v  16.466984 -17.193829 18.369684
v  -9.6569843 -8.4426203 8.0661144
v  -14.707024 17.193829 18.943626
v  -14.707022 -17.193829 18.943626

# 52 vertex normals
vn -28.393438 -74.338806 -68.019531
vn -31.523643 -74.41571 66.555611
vn -61.771061 -61.345886 55.445065
vn -63.011768 -60.703533 -54.627186
vn -61.771069 61.345879 55.445065
vn -63.011776 60.703526 -54.627186
vn -18.636341 59.133682 -82.236099
vn -28.028687 75.157524 67.424652
vn 81.649658 44.907314 40.824829
vn 66.666672 36.666672 -66.666672
vn 84.882843 -40.515907 -37.924377
vn 78.420631 47.553684 -44.51199
vn 47.95406 67.25106 -62.949455
vn 66.409302 -57.298145 -53.633163
vn -40.824825 -44.90731 -81.649658
vn -40.824833 44.90731 -81.649658
vn -57.735031 63.508526 -57.735027
vn -57.735023 -63.508533 -57.735027
vn -28.028675 -75.157524 67.424652
vn 81.649658 -44.907307 40.824829
vn -31.523655 74.41571 66.555611
vn -28.393448 74.338806 -68.019531
vn -18.636337 -59.13369 -82.236099
vn 66.666672 -36.666664 -66.666672
vn 40.824833 -44.90731 -81.649658
vn 40.824825 44.90731 -81.649658
vn 57.735023 63.508533 -57.735027
vn 57.735031 -63.508526 -57.735027
vn 78.420631 47.553684 44.51199
vn 84.882851 -40.515907 37.924377
vn 66.409302 -57.298145 53.633163
vn 47.95406 67.25106 62.949455
vn 70.52623 -77.578812 -7.2184658
vn 32.09116 -34.837498 89.258842
vn -31.449501 -34.886959 89.471008
vn -70.526222 -77.578827 -7.2184525
vn -31.442627 35.003128 89.435921
vn -70.526222 77.578827 -7.2184525
vn 32.084118 34.953514 89.223877
vn 70.52623 77.578812 -7.2184706
vn 55.373581 60.279255 62.696098
vn -54.541393 60.491055 63.254494
vn -59.581905 61.346527 -57.790585
vn 51.253994 60.148602 -66.204712
vn 55.19875 -60.095657 62.995213
vn -54.36628 -60.304844 63.551498
vn 51.358505 -60.635239 -65.755341
vn 63.559002 78.860901 -28.645241
vn 63.433567 -79.358986 -27.773153
vn -59.668747 -61.814461 -57.286705
vn -74.576225 73.254311 -1.8757417
vn -74.302361 -73.608917 -1.1160874

# Mesh 'CrtMonitor' with 48 faces
g CrtMonitor
usemtl CrtMonitorMaterial
f  1//1 2//2 3//3 4//4
f  4//4 3//3 5//5 6//6
f  7//7 8//8 9//9 10//10
f  11//11 12//12 13//13 14//14
f  15//15 16//16 17//17 18//18
f  8//8 19//19 20//20 9//9
f  5//5 3//3 2//2 21//21
f  21//21 2//2 19//19 8//8
f  4//4 6//6 22//22 1//1
f  1//1 22//22 7//7 23//23
f  6//6 5//5 21//21 22//22
f  22//22 21//21 8//8 7//7
f  24//24 20//20 19//19 23//23
f  23//23 19//19 2//2 1//1
f  15//15 25//25 24//24 23//23
f  25//25 26//26 10//10 24//24
f  26//26 16//16 7//7 10//10
f  16//16 15//15 23//23 7//7
f  18//18 17//17 27//27 28//28
f  26//26 25//25 28//28 27//27
f  16//16 26//26 27//27 17//17
f  25//25 15//15 18//18 28//28
f  29//29 12//12 20//20 24//24
f  11//11 30//30 10//10 9//9
f  30//30 29//29 24//24 10//10
f  12//12 11//11 9//9 20//20
f  31//31 14//14 13//13 32//32
f  30//30 11//11 14//14 31//31
f  29//29 30//30 31//31 32//32
f  12//12 29//29 32//32 13//13
f  33//33 34//34 35//35 36//36
f  36//36 35//35 37//37 38//38
f  38//38 37//37 39//39 40//40
f  40//40 39//39 34//34 33//33
f  36//36 38//38 40//40 33//33
f  41//41 42//42 43//43 44//44
f  45//45 46//46 35//35 34//34
f  46//46 42//42 37//37 35//35
f  42//42 41//41 39//39 37//37
f  41//41 45//45 34//34 39//39
f  47//47 44//44 48//48 49//49
f  46//46 45//45 47//47 50//50
f  45//45 41//41 44//44 47//47
f  42//42 46//46 50//50 43//43
f  51//51 52//52 49//49 48//48
f  43//43 50//50 52//52 51//51
f  44//44 43//43 51//51 48//48
f  50//50 47//47 49//49 52//52

