# File produced by Open Asset Import Library (http://www.assimp.sf.net)
# (assimp v5.0.1588609223)

mtllib result.mtl

# 24 vertex positions
v  37.499969 -74.999931 56.000034
v  37.499969 -74.999931 74.999962
v  -37.499962 -74.999931 74.999962
v  -37.499962 -74.999931 56.000034
v  -37.499962 37.764 56.000034
v  -37.499962 37.764 74.999962
v  -37.499969 74.999931 74.999962
v  -37.499969 74.999931 56.000034
v  37.499962 74.999931 74.999962
v  37.499962 74.999931 56.000034
v  37.499962 -37.764 56.000034
v  37.499962 -37.764 74.999962
v  -37.499962 -37.764 56.000034
v  -37.499962 -37.764 3.5762787e-05
v  -37.499962 -74.999931 3.5762787e-05
v  -37.499962 -37.764 74.999962
v  37.499962 37.764 74.999962
v  37.499962 37.764 56.000034
v  37.499962 37.764 3.5762787e-05
v  37.499962 74.999931 3.5762787e-05
v  -37.499962 37.764 3.5762787e-05
v  -37.499969 74.999931 3.5762787e-05
v  37.499962 -37.764 3.5762787e-05
v  37.499969 -74.999931 3.5762787e-05

# 0 UV coordinates

# 24 vertex normals
vn 70.710686 -70.710678 0
vn 57.735023 -57.735016 57.735027
vn -57.735016 -57.735023 57.735027
vn -70.710678 -70.71067 0
vn -90.453407 -30.151142 -30.151134
vn -70.710678 -5.9205786e-06 70.710678
vn -57.735023 57.735016 57.735027
vn -70.710678 70.71067 0
vn 57.735016 57.735023 57.735027
vn 70.710686 70.710678 0
vn 90.453407 30.151142 -30.151134
vn 70.710678 5.9205786e-06 70.710678
vn -90.453407 30.151134 -30.151134
vn -57.735031 57.735023 -57.735027
vn -57.735023 -57.735023 -57.735027
vn -70.710678 -2.6114526e-07 70.710678
vn 70.710678 2.6114526e-07 70.710678
vn 90.453407 -30.151134 -30.151134
vn 57.735031 -57.735023 -57.735027
vn 57.735023 57.735023 -57.735027
vn -57.735023 -57.735031 -57.735027
vn -57.735031 57.735016 -57.735027
vn 57.735023 57.735031 -57.735027
vn 57.735031 -57.735016 -57.735027

# Mesh 'Cube.001' with 22 faces
g Cube.001
usemtl DeskMat
f  1//1 2//2 3//3 4//4
f  5//5 6//6 7//7 8//8
f  8//8 7//7 9//9 10//10
f  11//11 12//12 2//2 1//1
f  4//4 13//13 14//14 15//15
f  16//16 3//3 2//2 12//12
f  7//7 6//6 17//17 9//9
f  6//6 16//16 12//12 17//17
f  10//10 18//18 19//19 20//20
f  13//13 5//5 18//18 11//11
f  10//10 9//9 17//17 18//18
f  18//18 17//17 12//12 11//11
f  4//4 3//3 16//16 13//13
f  13//13 16//16 6//6 5//5
f  21//21 22//22 20//20 19//19
f  15//15 14//14 23//23 24//24
f  13//13 11//11 23//23 14//14
f  1//1 4//4 15//15 24//24
f  8//8 10//10 20//20 22//22
f  11//11 1//1 24//24 23//23
f  18//18 5//5 21//21 19//19
f  5//5 8//8 22//22 21//21

