# File produced by Open Asset Import Library (http://www.assimp.sf.net)
# (assimp v5.0.1588609223)

mtllib result.mtl

# 16 vertex positions
v  -6 -2.6226832e-07 -0.094281912
v  -6 -2.6226832e-07 0.094281912
v  -4.2426405 4.2426405 0.094281912
v  -4.2426405 4.2426405 -0.094281912
v  -2.6226832e-07 6 0.094281912
v  -2.6226832e-07 6 -0.094281912
v  4.2426405 4.2426405 0.094281912
v  4.2426405 4.2426405 -0.094281912
v  6 2.6226832e-07 0.094281912
v  6 2.6226832e-07 -0.094281912
v  4.2426405 -4.2426405 0.094281912
v  4.2426405 -4.2426405 -0.094281912
v  2.6226832e-07 -6 0.094281912
v  2.6226832e-07 -6 -0.094281912
v  -4.2426405 -4.2426405 0.094281912
v  -4.2426405 -4.2426405 -0.094281912

# 0 UV coordinates

# 16 vertex normals
vn -5.2767916 -2.3065587e-07 -0.044874717
vn -5.2767911 -2.3065584e-07 0.044874713
vn -3.7312553 3.7312548 0.044874713
vn -3.7312555 3.7312551 -0.044874717
vn -2.3065584e-07 5.2767911 0.044874713
vn -2.3065587e-07 5.2767916 -0.044874717
vn 3.7312548 3.7312553 0.044874713
vn 3.7312551 3.7312555 -0.044874717
vn 5.2767911 2.3065584e-07 0.044874713
vn 5.2767916 2.3065587e-07 -0.044874717
vn 3.7312553 -3.7312548 0.044874713
vn 3.7312555 -3.7312551 -0.044874717
vn 2.3065584e-07 -5.2767911 0.044874713
vn 2.3065587e-07 -5.2767916 -0.044874717
vn -3.7312548 -3.7312553 0.044874713
vn -3.7312551 -3.7312555 -0.044874717

# Mesh 'Cylinder' with 10 faces
g Cylinder
usemtl DiskMat
f  1//1 2//2 3//3 4//4
f  4//4 3//3 5//5 6//6
f  6//6 5//5 7//7 8//8
f  8//8 7//7 9//9 10//10
f  10//10 9//9 11//11 12//12
f  12//12 11//11 13//13 14//14
f  3//3 2//2 15//15 13//13 11//11 9//9 7//7 5//5
f  14//14 13//13 15//15 16//16
f  16//16 15//15 2//2 1//1
f  1//1 4//4 6//6 8//8 10//10 12//12 14//14 16//16

