# File produced by Open Asset Import Library (http://www.assimp.sf.net)
# (assimp v5.0.1588609223)

mtllib result.mtl

# 8 vertex positions
v  4.4450002 -4.4450002 -0.25000003
v  4.4450002 -4.4450002 0.25000003
v  -4.4450002 -4.4450002 0.25000003
v  -4.4450002 -4.4450002 -0.25000003
v  -4.4450002 4.4450002 0.25000003
v  -4.4450002 4.4450002 -0.25000003
v  4.4450002 4.4450002 0.25000003
v  4.4450002 4.4450002 -0.25000003

# 24 UV coordinates
vt 0.84642905 0.19312662 0
vt 0.94882154 0.19312662 0
vt 0.94882154 0.29551914 0
vt 0.84642905 0.29551914 0
vt 0.64280808 0.72069073 0
vt 0.64280808 0.88896334 0
vt 0.93696553 0.88896334 0
vt 0.93696553 0.72069073 0
vt 0.79437792 0.1972561 0
vt 0.96831852 0.1972561 0
vt 0.96831852 0.37119669 0
vt 0.79437792 0.37119669 0
vt 0.84642905 0.50030428 0
vt 0.94882154 0.50030428 0
vt 0.94882154 0.60269678 0
vt 0.84642905 0.60269678 0
vt 0.48096532 0.97954822 0
vt 0.98564386 0.97954822 0
vt 0.98564386 0.020451814 0
vt 0.48096532 0.020451814 0
vt 0.45792872 0.98307753 0
vt 0.0072537144 0.98307753 0
vt 0.0072537144 0.12044868 0
vt 0.45792872 0.12044868 0

# 8 vertex normals
vn 57.735023 -57.735016 -57.735027
vn 57.735023 -57.735016 57.735027
vn -57.735016 -57.735023 57.735027
vn -57.735016 -57.735023 -57.735027
vn -57.735023 57.735016 57.735027
vn -57.735023 57.735016 -57.735027
vn 57.735016 57.735023 57.735027
vn 57.735016 57.735023 -57.735027

# Mesh 'Cube.001' with 6 faces
g Cube.001
usemtl Floppy35Mat
f  1/1/1 2/2/2 3/3/3 4/4/4
f  4/5/4 3/6/3 5/7/5 6/8/6
f  6/9/6 5/10/5 7/11/7 8/12/8
f  8/13/8 7/14/7 2/15/2 1/16/1
f  4/17/4 6/18/6 8/19/8 1/20/1
f  5/21/5 3/22/3 2/23/2 7/24/7

