# File produced by Open Asset Import Library (http://www.assimp.sf.net)
# (assimp v5.0.1588609223)

mtllib result.mtl

# 8 vertex positions
v  10 -24 0
v  10 -24 2.463814
v  -10.622416 -24 4.7999997
v  -10.622416 -24 0
v  -10.622418 24 4.7999997
v  -10.622418 24 0
v  9.9999981 24 2.463814
v  9.9999981 24 0

# 24 UV coordinates
vt 0.62748694 0.80730635 0
vt 0.62748694 0.8979519 0
vt 0.95053244 0.98390168 0
vt 0.95053244 0.80730635 0
vt 0.19220077 0.80653024 0
vt 0.19220077 0.97511518 0
vt 0.91000348 0.97511518 0
vt 0.91000348 0.80653024 0
vt 0.92472059 0.81495267 0
vt 0.92472059 0.98103672 0
vt 0.62090296 0.90020281 0
vt 0.62090296 0.81495267 0
vt 0.95783573 0.86461252 0
vt 0.95783573 0.96023816 0
vt 0.16461609 0.96023816 0
vt 0.16461609 0.86461252 0
vt 0.77349317 0.97753042 0
vt 0.93815947 0.97753042 0
vt 0.93815947 0.81137413 0
vt 0.77349317 0.81137413 0
vt 0.97795743 0.9736442 0
vt 0.018497914 0.9736442 0
vt 0.018497914 0.032135546 0
vt 0.97795743 0.032135546 0

# 8 vertex normals
vn 57.735023 -57.735023 -57.735027
vn 61.951443 -55.683495 55.329601
vn -53.274033 -60.031406 59.649872
vn -57.735023 -57.735031 -57.735027
vn -53.27404 60.031391 59.649872
vn -57.735031 57.735016 -57.735027
vn 61.951443 55.683502 55.329609
vn 57.735016 57.735023 -57.735027

# Mesh 'Cube.001' with 6 faces
g Cube.001
usemtl KeyboardMaterial
f  1/1/1 2/2/2 3/3/3 4/4/4
f  4/5/4 3/6/3 5/7/5 6/8/6
f  6/9/6 5/10/5 7/11/7 8/12/8
f  8/13/8 7/14/7 2/15/2 1/16/1
f  4/17/4 6/18/6 8/19/8 1/20/1
f  5/21/5 3/22/3 2/23/2 7/24/7

