# File produced by Open Asset Import Library (http://www.assimp.sf.net)
# (assimp v5.0.1588609223)

mtllib result.mtl

# 16 vertex positions
v  3.111196 -8.098321 -1.5925875
v  3.111196 -8.098321 1.5925875
v  -3.1111956 -8.098321 1.5925875
v  -3.1111956 -8.098321 -1.5925875
v  -4.4000001 0.23389257 -1.5925875
v  -4.4000001 0.23389283 2.4226778
v  -3.4371815 4.4000001 1.5925875
v  -3.4371815 4.4000001 -1.5925875
v  3.437181 4.4000001 1.5925875
v  3.437181 4.4000001 -1.5925875
v  4.4000001 -3.9322135 -1.5925875
v  4.4000001 -3.932214 2.4226778
v  4.4000001 0.23389322 -1.5925875
v  -4.4000001 -3.932214 2.4226778
v  4.4000001 0.23389296 2.4226778
v  -4.4000001 -3.9322145 -1.5925875

# 0 UV coordinates

# 16 vertex normals
vn 50.412952 -68.36557 -52.770103
vn 47.195507 -73.65593 48.449856
vn -47.195507 -73.65593 48.449863
vn -50.412945 -68.36557 -52.770103
vn -70.027878 7.9867244 -70.938766
vn -69.811081 14.87152 70.037498
vn -49.153141 71.666428 49.476173
vn -52.45295 65.957764 -53.835495
vn 49.153133 71.666428 49.476173
vn 52.452942 65.957771 -53.835495
vn 69.520668 -10.507613 -71.108833
vn 69.18502 -17.370932 70.083412
vn 70.027878 7.9867311 -70.938766
vn -69.18502 -17.370939 70.083412
vn 69.811081 14.871526 70.037498
vn -69.520668 -10.507619 -71.108833

# Mesh 'Cube.001' with 14 faces
g Cube.001
usemtl MouseMat
f  1//1 2//2 3//3 4//4
f  5//5 6//6 7//7 8//8
f  8//8 7//7 9//9 10//10
f  11//11 12//12 2//2 1//1
f  5//5 8//8 10//10 13//13
f  14//14 3//3 2//2 12//12
f  7//7 6//6 15//15 9//9
f  6//6 14//14 12//12 15//15
f  4//4 16//16 11//11 1//1
f  16//16 5//5 13//13 11//11
f  10//10 9//9 15//15 13//13
f  13//13 15//15 12//12 11//11
f  4//4 3//3 14//14 16//16
f  16//16 14//14 6//6 5//5

