# File produced by Open Asset Import Library (http://www.assimp.sf.net)
# (assimp v5.0.1588609223)

mtllib result.mtl

# 8 vertex positions
v  7.9999928 -6.4999933 1.0430813e-05
v  7.9999928 -6.4999933 21.999989
v  -7.9999919 -6.4999943 21.999989
v  -7.9999919 -6.4999943 1.0430813e-05
v  -7.9999928 6.4999933 21.999989
v  -7.9999928 6.4999933 1.0430813e-05
v  7.9999919 6.4999943 21.999989
v  7.9999919 6.4999943 1.0430813e-05

# 20 UV coordinates
vt 0.32227197 0.52915537 0
vt 0.32227197 0.97321808 0
vt 0.40719488 0.97321808 0
vt 0.40719488 0.52915537 0
vt 0.659105 0.010513365 0
vt 0.659105 0.99347377 0
vt 0.98808104 0.99347377 0
vt 0.98808104 0.010513365 0
vt 0.31368533 0.19249132 0
vt 0.31368533 0.98692787 0
vt 0.0046777371 0.98692787 0
vt 0.0046777371 0.19249132 0
vt 0.4171834 0.99009013 0
vt 0.64629328 0.99009013 0
vt 0.64629328 0.57478321 0
vt 0.4171834 0.57478321 0
vt 0.64288545 0.9848268 0
vt 0.42601657 0.9848268 0
vt 0.42601657 0.58134007 0
vt 0.64288545 0.58134007 0

# 8 vertex normals
vn 57.735023 -57.735023 -57.735027
vn 57.735023 -57.735023 57.735027
vn -57.735016 -57.735031 57.735027
vn -57.735016 -57.735031 -57.735027
vn -57.735023 57.735023 57.735027
vn -57.735023 57.735023 -57.735027
vn 57.735016 57.735031 57.735027
vn 57.735016 57.735031 -57.735027

# Mesh 'Cube.001' with 6 faces
g Cube.001
usemtl SpeakerMat
f  1/1/1 2/2/2 3/3/3 4/4/4
f  4/5/4 3/6/3 5/7/5 6/8/6
f  6/4/6 5/3/5 7/2/7 8/1/8
f  8/9/8 7/10/7 2/11/2 1/12/1
f  4/13/4 6/14/6 8/15/8 1/16/1
f  5/17/5 3/18/3 2/19/2 7/20/7

